<?xml version="1.0" encoding="utf-8"?>
<!-- Generator: Adobe Illustrator 16.0.4, SVG Export Plug-In . SVG Version: 6.00 Build 0)  -->
<!DOCTYPE svg PUBLIC "-//W3C//DTD SVG 1.1//EN" "http://www.w3.org/Graphics/SVG/1.1/DTD/svg11.dtd">
<svg version="1.1" id="Layer_1" xmlns="http://www.w3.org/2000/svg" xmlns:xlink="http://www.w3.org/1999/xlink" x="0px" y="0px"
	 width="63.167px" height="72px" viewBox="0 0 63.167 72" enable-background="new 0 0 63.167 72" xml:space="preserve">
<g>
	<path fill-rule="evenodd" clip-rule="evenodd" d="M15.47,13.744c-5.126,18.055,3.757,31.473,17,43.811
		c-1.417-4.562-2.244-9.314-2.789-12.883C27.489,30.339,31.187,17.625,40.564,6.66c4.55-5.32,10.872-6.824,16.134-3.61
		c2.055,1.255,5.137,3.817,4.557,6.392c-0.439,1.954-3.338,2.464-5.203,2.959c-12.607,3.347-19.136,12.233-19.594,25.204
		c-0.427,12.125,5.29,23.762,8.15,31.236c0.884,2.309-7.284-0.252-9.953-1.551c-14.224-6.926-24.448-18.65-30.988-33.3
		C-0.735,24.129,3.759,15.882,15.47,13.744z"/>
</g>
</svg>
